<?xml version="1.0" standalone="no"?>
<!DOCTYPE svg PUBLIC "-//W3C//DTD SVG 20010904//EN"
 "http://www.w3.org/TR/2001/REC-SVG-20010904/DTD/svg10.dtd">
<svg version="1.0" xmlns="http://www.w3.org/2000/svg"
 width="500.000000pt" height="500.000000pt" viewBox="0 0 500.000000 500.000000"
 preserveAspectRatio="xMidYMid meet">
<metadata>
Created by potrace 1.14, written by Peter Selinger 2001-2017
</metadata>
<g transform="translate(0.000000,500.000000) scale(0.100000,-0.100000)"
fill="#000000" stroke="none">
<path d="M120 3181 l-35 -29 -3 -566 -2 -565 25 -7 c18 -4 25 -13 25 -31 0
-13 5 -34 12 -46 28 -53 23 -52 312 -55 l270 -3 -48 -44 -48 -45 384 0 383 0
-52 35 c-28 19 -54 39 -58 45 -4 7 148 10 469 10 262 0 476 -2 476 -5 0 -3
-28 -23 -62 -45 l-61 -40 305 0 306 0 -3 45 -2 45 501 0 501 0 -25 -24 c-14
-13 -43 -34 -65 -45 l-40 -21 230 0 c127 0 224 4 217 9 -10 6 -11 17 -5 42 l9
34 390 5 c214 3 396 9 405 13 8 4 23 21 32 36 15 26 17 64 17 312 0 281 0 282
20 264 20 -18 20 -17 20 198 0 202 -1 216 -19 222 -15 4 -19 18 -23 69 -7 115
-9 116 -394 116 l-317 0 23 25 c13 14 46 36 74 50 l50 25 -395 0 -394 -1 61
-29 c33 -16 69 -39 79 -50 l18 -20 -484 2 -484 3 1 48 0 47 -320 0 -321 0 64
-36 c122 -68 144 -64 -371 -64 l-463 1 29 22 c16 12 52 34 80 49 l51 28 -317
0 c-201 0 -319 -4 -323 -10 -3 -5 -1 -10 5 -10 6 0 8 -5 3 -12 -4 -7 -6 -25
-4 -40 l3 -28 -171 0 c-130 0 -171 3 -172 13 -1 6 -2 29 -2 50 l0 37 -166 0
-167 0 -34 -29z"/>
</g>
</svg>
