<?xml version="1.0" standalone="no"?>
<!DOCTYPE svg PUBLIC "-//W3C//DTD SVG 20010904//EN"
 "http://www.w3.org/TR/2001/REC-SVG-20010904/DTD/svg10.dtd">
<svg version="1.0" xmlns="http://www.w3.org/2000/svg"
 width="1000.000000pt" height="1000.000000pt" viewBox="0 0 1000.000000 1000.000000"
 preserveAspectRatio="xMidYMid meet">
<metadata>
Created by potrace 1.14, written by Peter Selinger 2001-2017
</metadata>
<g transform="translate(0.000000,1000.000000) scale(0.100000,-0.100000)"
fill="#000000" stroke="none">
<path d="M4274 8399 c-563 -40 -1133 -266 -1584 -625 -109 -87 -357 -334 -444
-444 -170 -213 -339 -505 -439 -760 -187 -474 -242 -1017 -156 -1535 176
-1069 963 -1965 2002 -2279 751 -227 1563 -142 2237 235 58 32 134 78 170 102
l65 43 735 -730 c704 -701 738 -733 810 -768 159 -77 311 -77 470 -1 74 35
197 160 233 235 86 179 68 382 -46 540 -25 35 -363 380 -750 767 l-705 704 60
91 c75 116 193 348 251 496 243 616 260 1335 47 1970 -104 309 -273 620 -480
880 -106 135 -325 354 -460 460 -572 454 -1283 672 -2016 619z m366 -1049
c376 -33 725 -173 1011 -406 101 -82 266 -258 342 -364 132 -186 251 -459 297
-685 85 -410 30 -829 -156 -1200 -218 -434 -602 -765 -1066 -920 -200 -67
-333 -88 -563 -89 -141 -1 -218 4 -300 18 -564 94 -1043 433 -1323 938 -86
155 -162 374 -198 573 -28 153 -26 470 4 629 48 253 166 534 310 736 81 115
258 300 367 385 278 217 620 353 966 384 135 12 180 12 309 1z"/>
<path d="M4037 6711 c-55 -36 -62 -55 -65 -198 l-4 -132 -271 -3 -272 -3 -48
-28 c-26 -15 -60 -47 -75 -69 l-27 -41 -3 -304 -3 -303 1236 0 1236 0 -3 303
-3 304 -27 41 c-15 22 -49 54 -75 69 l-48 28 -272 3 -271 3 -4 132 c-3 143
-10 162 -65 198 -26 18 -57 19 -468 19 -411 0 -442 -1 -468 -19z m823 -246 l0
-85 -355 0 -355 0 0 85 0 85 355 0 355 0 0 -85z"/>
<path d="M3272 5121 l3 -369 30 -44 c20 -28 49 -52 84 -70 l55 -28 1061 0
1061 0 55 28 c35 18 64 42 84 70 l30 44 3 369 3 369 -460 0 -459 0 -3 -125
c-4 -121 -5 -125 -32 -152 l-27 -28 -255 0 -255 0 -27 28 c-27 27 -28 31 -32
152 l-3 125 -459 0 -460 0 3 -369z"/>
<path d="M4330 5405 l0 -85 175 0 175 0 0 85 0 85 -175 0 -175 0 0 -85z"/>
</g>
</svg>
